<svg xmlns="http://www.w3.org/2000/svg" width="18" height="18" viewBox="0 0 18 18" fill="none">
<path d="M12.2442 16.5469C12.257 16.6222 12.2464 16.6994 12.214 16.7686C12.1815 16.8377 12.1287 16.8953 12.0626 16.9336C11.9967 16.9718 11.9208 16.9895 11.8448 16.9834C11.7687 16.9773 11.6959 16.9478 11.6368 16.8994L8.95225 14.8838C8.82263 14.787 8.66483 14.7354 8.50303 14.7354C8.34127 14.7354 8.18341 14.787 8.05382 14.8838L5.36436 16.8984C5.30538 16.9467 5.23329 16.9763 5.15733 16.9824C5.08135 16.9886 5.00553 16.9708 4.93956 16.9326C4.87363 16.8944 4.82072 16.8374 4.78819 16.7686C4.75568 16.6996 4.74443 16.6221 4.75694 16.5469L5.89268 10.1523C6.56951 10.6344 7.38552 10.9337 8.26866 10.9785C8.34522 10.9824 8.42258 10.9844 8.5001 10.9844C8.59244 10.9844 8.68454 10.982 8.7755 10.9766C9.64196 10.9243 10.4428 10.6265 11.1085 10.1523L12.2442 16.5469Z" fill="#E45D2A"/>
<path d="M8.5 2C10.9853 2 13 4.01472 13 6.5C13 8.98528 10.9853 11 8.5 11C6.01472 11 4 8.98528 4 6.5C4 4.01472 6.01472 2 8.5 2Z" fill="#FFC54E"/>
</svg>