<svg xmlns="http://www.w3.org/2000/svg" width="26" height="26" viewBox="0 0 26 26" fill="none">
  <path fill-rule="evenodd" clip-rule="evenodd" d="M13 0C20.1681 0 26 5.83187 26 13C26 20.1681 20.1681 26 13 26C5.83187 26 0 20.1681 0 13C0 5.83187 5.83187 0 13 0ZM13 17C10.4412 17 5.47828 17.6016 4.92578 20.4629C5.95377 21.5787 7.20221 22.4692 8.5918 23.0781C9.98147 23.687 11.4828 24.0006 13 24C14.5173 24.0007 16.0185 23.6861 17.4082 23.0771C18.7977 22.4682 20.0464 21.5778 21.0742 20.4619C20.5217 17.6013 15.5588 17 13 17ZM13.125 6C11.9315 6 10.7873 6.47445 9.94336 7.31836C9.09945 8.16227 8.625 9.30653 8.625 10.5C8.625 11.39 8.88932 12.26 9.38379 13C9.87825 13.74 10.5811 14.3167 11.4033 14.6572C12.2255 14.9977 13.1301 15.0867 14.0029 14.9131C14.8758 14.7394 15.6773 14.311 16.3066 13.6816C16.936 13.0523 17.3644 12.2508 17.5381 11.3779C17.7117 10.5051 17.6227 9.60052 17.2822 8.77832C16.9417 7.9561 16.365 7.25325 15.625 6.75879C14.885 6.26432 14.015 6 13.125 6Z" fill="#5F5F60"/>
</svg>