<svg xmlns="http://www.w3.org/2000/svg" width="600" height="600" viewBox="0 0 600 600" fill="none">
  <path fill-rule="evenodd" clip-rule="evenodd" d="M300 0C465.418 0 600 134.582 600 300C600 465.418 465.418 600 300 600C134.582 600 0 465.418 0 300C0 134.582 134.582 0 300 0ZM300 392.308C240.952 392.308 126.422 406.192 113.672 472.221C137.395 497.969 166.205 518.521 198.272 532.572C230.342 546.623 264.987 553.861 300 553.846C335.014 553.861 369.658 546.603 401.728 532.55C433.794 518.496 462.609 497.95 486.328 472.198C473.578 406.184 359.048 392.308 300 392.308ZM302.885 138.462C275.343 138.462 248.937 149.41 229.462 168.885C209.987 188.36 199.038 214.766 199.038 242.308C199.038 262.847 205.138 282.923 216.549 300C227.96 317.076 244.179 330.384 263.154 338.244C282.127 346.102 303.002 348.155 323.145 344.148C343.288 340.141 361.785 330.253 376.307 315.73C390.83 301.208 400.718 282.711 404.725 262.568C408.732 242.426 406.678 221.55 398.821 202.577C390.961 183.602 377.653 167.383 360.577 155.972C343.5 144.561 323.423 138.462 302.885 138.462Z" fill="#5F5F60"/>
</svg>