<svg xmlns="http://www.w3.org/2000/svg" width="35" height="35" viewBox="0 0 35 35" fill="none">
  <path d="M28.2339 25.2452C27.9828 24.9777 27.0961 24.1868 25.4662 23.1404C23.8243 22.085 22.6134 21.4268 22.2661 21.2734C22.2354 21.2598 22.2017 21.2548 22.1685 21.259C22.1353 21.2631 22.1038 21.2762 22.0775 21.2969C21.518 21.7333 20.576 22.5348 20.5255 22.5781C20.1993 22.8576 20.1993 22.8576 19.9323 22.7705C19.4628 22.6165 18.0041 21.842 16.7331 20.5681C15.4621 19.2942 14.6476 17.7995 14.4937 17.3304C14.4056 17.063 14.4056 17.063 14.6861 16.7368C14.7294 16.6863 15.5314 15.7443 15.9677 15.1853C15.9884 15.159 16.0015 15.1275 16.0057 15.0943C16.0099 15.0611 16.0049 15.0273 15.9913 14.9967C15.8378 14.6489 15.1797 13.4385 14.1242 11.7966C13.0764 10.1672 12.2865 9.28056 12.019 9.02944C11.9945 9.00627 11.9641 8.99016 11.9312 8.98279C11.8982 8.97543 11.8639 8.97708 11.8319 8.98758C10.8969 9.3089 9.99474 9.71888 9.1378 10.2119C8.31054 10.6928 7.52734 11.2458 6.79733 11.8644C6.77185 11.8861 6.75274 11.9143 6.74206 11.946C6.73139 11.9777 6.72954 12.0117 6.73672 12.0444C6.83726 12.5129 7.31786 14.469 8.80922 17.1784C10.3309 19.9437 11.3854 21.3604 13.62 23.5874C15.8547 25.8143 17.3162 26.9323 20.0843 28.454C22.7938 29.9453 24.7508 30.4264 25.2185 30.526C25.2512 30.5331 25.2853 30.5312 25.317 30.5205C25.3488 30.5098 25.3771 30.4908 25.3989 30.4653C26.0174 29.7354 26.5702 28.9522 27.0509 28.1249C27.5439 27.2679 27.9538 26.3658 28.2753 25.4309C28.2855 25.399 28.2871 25.365 28.2798 25.3324C28.2726 25.2997 28.2567 25.2696 28.2339 25.2452Z" fill="white"/>
</svg>