<svg xmlns="http://www.w3.org/2000/svg" width="33" height="33" viewBox="0 0 33 33" fill="none">
  <path d="M16.5065 19.0978C15.4136 19.0978 14.4846 18.7153 13.7196 17.9503C12.9546 17.1852 12.5721 16.2563 12.5721 15.1634V7.29453C12.5721 6.20164 12.9546 5.27268 13.7196 4.50765C14.4846 3.74262 15.4136 3.36011 16.5065 3.36011C17.5994 3.36011 18.5284 3.74262 19.2934 4.50765C20.0584 5.27268 20.4409 6.20164 20.4409 7.29453V15.1634C20.4409 16.2563 20.0584 17.1852 19.2934 17.9503C18.5284 18.7153 17.5994 19.0978 16.5065 19.0978ZM15.195 28.2781V24.2453C12.9218 23.9393 11.042 22.9229 9.55568 21.1962C8.06934 19.4694 7.32617 17.4585 7.32617 15.1634H9.94912C9.94912 16.9776 10.5887 18.5243 11.8678 19.8034C13.1469 21.0825 14.6932 21.7216 16.5065 21.7208C18.3198 21.7199 19.8665 21.0803 21.1465 19.8021C22.4265 18.5238 23.0656 16.9776 23.0639 15.1634H25.6868C25.6868 17.4585 24.9437 19.4694 23.4573 21.1962C21.971 22.9229 20.0912 23.9393 17.818 24.2453V28.2781H15.195Z" fill="#282828"/>
</svg>