<svg xmlns="http://www.w3.org/2000/svg" width="18" height="18" viewBox="0 0 18 18" fill="none">
  <path fill-rule="evenodd" clip-rule="evenodd" d="M2.79219 2.7994C3.03628 2.55553 3.43295 2.55539 3.67695 2.7994L15.1242 14.2467C15.3681 14.4907 15.368 14.8864 15.1242 15.1305C14.8802 15.3745 14.4845 15.3745 14.2404 15.1305L12.1848 13.0758C11.5483 13.5741 10.8036 13.9217 10.0051 14.0806C9.87725 14.1061 9.74809 14.1255 9.61934 14.1412V15.5064C9.61934 15.8515 9.33935 16.1312 8.99434 16.1314C8.64916 16.1314 8.36934 15.8516 8.36934 15.5064V14.1383C7.90556 14.0819 7.44822 13.9664 7.01192 13.7857C6.0657 13.3937 5.25672 12.7301 4.6877 11.8785C4.11864 11.0268 3.81459 10.0249 3.81465 9.00057V7.69979C3.81475 7.35485 4.09474 7.07502 4.43965 7.07479C4.78466 7.07491 5.06455 7.35477 5.06465 7.69979V9.00057L5.07539 9.29061C5.12528 9.96543 5.34913 10.6178 5.72676 11.1832C6.15844 11.8293 6.77256 12.333 7.49043 12.6305C8.20839 12.9278 8.99877 13.0057 9.76094 12.8541C10.3167 12.7435 10.8387 12.5132 11.2941 12.1842L10.3166 11.2076C10.0644 11.3586 9.7877 11.468 9.49629 11.526C8.99679 11.6252 8.47854 11.5743 8.00801 11.3795C7.53761 11.1846 7.13583 10.8545 6.85274 10.4312C6.56968 10.008 6.41773 9.51067 6.41719 9.00155V7.30721L2.79219 3.68319C2.54833 3.43924 2.54854 3.04348 2.79219 2.7994ZM7.66719 8.99959C7.66742 9.26182 7.74601 9.51894 7.8918 9.7369C8.03753 9.95457 8.24451 10.1239 8.48653 10.2242C8.72879 10.3245 8.99595 10.3515 9.25313 10.3004C9.29475 10.2921 9.33479 10.2774 9.3752 10.2652L7.66719 8.55721V8.99959Z" fill="white"/>
  <path d="M13.548 7.07479C13.8931 7.07491 14.1729 7.35477 14.173 7.69979V9.00155C14.1728 9.30633 14.1458 9.61072 14.092 9.91073C14.0311 10.2504 13.7061 10.4765 13.3664 10.4156C13.0267 10.3546 12.8006 10.0298 12.8615 9.69002C12.9023 9.46253 12.9228 9.23169 12.923 9.00057V7.69979C12.9232 7.35479 13.2031 7.07493 13.548 7.07479Z" fill="white"/>
  <path d="M7.90254 2.12362C8.42645 1.87872 9.01814 1.81708 9.58125 1.94881C10.1444 2.08073 10.6472 2.39905 11.008 2.85116C11.3688 3.3034 11.567 3.86443 11.5705 4.44295V7.2701C11.5704 7.61516 11.2906 7.89499 10.9455 7.8951C10.6006 7.89486 10.3206 7.61508 10.3205 7.2701V4.44979C10.3186 4.15209 10.2171 3.86318 10.0314 3.63045C9.84577 3.3978 9.58686 3.23457 9.29707 3.16659C9.00709 3.09869 8.70165 3.13034 8.43184 3.25643C8.16223 3.3826 7.94261 3.596 7.80879 3.8619C7.6537 4.17023 7.27827 4.29426 6.96992 4.13924C6.66156 3.98413 6.53747 3.60874 6.69258 3.30038C6.95258 2.78365 7.37855 2.36865 7.90254 2.12362Z" fill="white"/>
</svg>