<svg xmlns="http://www.w3.org/2000/svg" width="28" height="28" viewBox="0 0 28 28" fill="none">
  <path d="M9.57403 16.1965H11.7871V13.9834C11.7871 13.6699 11.8934 13.4073 12.1058 13.1956C12.3183 12.9838 12.5809 12.8776 12.8937 12.8769H15.1068V15.09L18.4265 11.7703L15.1068 8.45064V10.6638H12.8937C11.9716 10.6638 11.1878 10.9865 10.5423 11.632C9.89677 12.2775 9.57403 13.0613 9.57403 13.9834V16.1965ZM5.1478 20.6228C4.53919 20.6228 4.01837 20.4063 3.58534 19.9732C3.15231 19.5402 2.93542 19.019 2.93468 18.4097V6.23753C2.93468 5.62892 3.15157 5.1081 3.58534 4.67507C4.01911 4.24204 4.53993 4.02515 5.1478 4.02441H22.8527C23.4613 4.02441 23.9825 4.2413 24.4163 4.67507C24.85 5.10884 25.0666 5.62966 25.0658 6.23753V18.4097C25.0658 19.0183 24.8493 19.5395 24.4163 19.9732C23.9832 20.407 23.4621 20.6235 22.8527 20.6228H5.1478ZM1.82812 23.9424V21.7293H26.1724V23.9424H1.82812Z" fill="#282828"/>
</svg>