<svg xmlns="http://www.w3.org/2000/svg" width="31" height="31" viewBox="0 0 31 31" fill="none">
  <path d="M21.6408 13.6475V9.34425C21.6408 9.01817 21.5113 8.70544 21.2807 8.47486C21.0502 8.24428 20.7374 8.11475 20.4113 8.11475H5.65724C5.33116 8.11475 5.01843 8.24428 4.78785 8.47486C4.55727 8.70544 4.42773 9.01817 4.42773 9.34425V21.6393C4.42773 21.9654 4.55727 22.2782 4.78785 22.5087C5.01843 22.7393 5.33116 22.8688 5.65724 22.8688H20.4113C20.7374 22.8688 21.0502 22.7393 21.2807 22.5087C21.5113 22.2782 21.6408 21.9654 21.6408 21.6393V17.3361L26.5589 22.2541V8.7295L21.6408 13.6475Z" fill="#282828"/>
</svg>